<svg width="14" height="14" viewBox="0 0 14 14" fill="none" xmlns="http://www.w3.org/2000/svg">
<mask id="path-1-outside-1_42_2721" maskUnits="userSpaceOnUse" x="-0.514648" y="-0.515747" width="15" height="15" fill="black">
<rect fill="white" x="-0.514648" y="-0.515747" width="15" height="15"/>
<path fill-rule="evenodd" clip-rule="evenodd" d="M7.03488 0.484253L7.90381 1.35319L2.86885 6.38815H13.4854V7.617H2.8704L7.90308 12.6497L7.03414 13.5186L0.517152 7.00162L1.38608 6.13269L1.38626 6.13287L7.03488 0.484253Z"/>
</mask>
<path fill-rule="evenodd" clip-rule="evenodd" d="M7.03488 0.484253L7.90381 1.35319L2.86885 6.38815H13.4854V7.617H2.8704L7.90308 12.6497L7.03414 13.5186L0.517152 7.00162L1.38608 6.13269L1.38626 6.13287L7.03488 0.484253Z" fill="#19191B" fill-opacity="0.2"/>
<path d="M7.90381 1.35319L7.97452 1.28247L8.04523 1.35319L7.97452 1.4239L7.90381 1.35319ZM7.03488 0.484253L6.96417 0.413542L7.03488 0.342832L7.10559 0.413542L7.03488 0.484253ZM2.86885 6.38815V6.48815H2.62742L2.79813 6.31744L2.86885 6.38815ZM13.4854 6.38815V6.28815H13.5854V6.38815H13.4854ZM13.4854 7.617H13.5854V7.717H13.4854V7.617ZM2.8704 7.617L2.79969 7.68771L2.62897 7.517H2.8704V7.617ZM7.90308 12.6497L7.97379 12.579L8.0445 12.6497L7.97379 12.7204L7.90308 12.6497ZM7.03414 13.5186L7.10485 13.5893L7.03414 13.66L6.96343 13.5893L7.03414 13.5186ZM0.517152 7.00162L0.446441 7.07233L0.375731 7.00162L0.446441 6.93091L0.517152 7.00162ZM1.38608 6.13269L1.31537 6.06198L1.38608 5.99127L1.45679 6.06198L1.38608 6.13269ZM1.38626 6.13287L1.45697 6.20358L1.38626 6.27429L1.31555 6.20358L1.38626 6.13287ZM7.8331 1.4239L6.96417 0.554964L7.10559 0.413542L7.97452 1.28247L7.8331 1.4239ZM2.79813 6.31744L7.8331 1.28247L7.97452 1.4239L2.93956 6.45886L2.79813 6.31744ZM2.86885 6.28815H13.4854V6.48815H2.86885V6.28815ZM13.5854 6.38815V7.617H13.3854V6.38815H13.5854ZM13.4854 7.717H2.8704V7.517H13.4854V7.717ZM2.94111 7.54629L7.97379 12.579L7.83237 12.7204L2.79969 7.68771L2.94111 7.54629ZM7.97379 12.7204L7.10485 13.5893L6.96343 13.4479L7.83237 12.579L7.97379 12.7204ZM6.96343 13.5893L0.446441 7.07233L0.587863 6.93091L7.10485 13.4479L6.96343 13.5893ZM0.446441 6.93091L1.31537 6.06198L1.45679 6.2034L0.587863 7.07233L0.446441 6.93091ZM1.45679 6.06198L1.45697 6.06216L1.31555 6.20358L1.31537 6.2034L1.45679 6.06198ZM7.10559 0.554964L1.45697 6.20358L1.31555 6.06216L6.96417 0.413542L7.10559 0.554964Z" fill="#19191B" fill-opacity="0.2" mask="url(#path-1-outside-1_42_2721)"/>
</svg>
