<svg width="23" height="19" viewBox="0 0 23 19" fill="none" xmlns="http://www.w3.org/2000/svg">
<path d="M14.0771 0.999023C14.4248 0.86285 14.8242 1.01734 14.9932 1.36914L17.4307 6.40234H21.3145C21.7221 6.40234 22.0498 6.74325 22.0498 7.16016C22.0497 7.57666 21.7223 7.91992 21.3145 7.91992H20.8047L19.2793 17.4121V17.4131C19.2211 17.7659 18.9352 18.0184 18.6035 18.042V18.0498H4.44922C4.06258 18.0497 3.74844 17.7482 3.71484 17.3623V17.3633L2.19531 7.91992H1.68555C1.27765 7.91992 0.950325 7.57666 0.950195 7.16016C0.950195 6.74325 1.27785 6.40234 1.68555 6.40234H5.56934L8.00684 1.36914L8.04395 1.30176C8.24225 0.976685 8.65167 0.855119 8.99121 1.03027L9.05664 1.06836C9.33043 1.24612 9.45389 1.58629 9.37207 1.90039L9.32031 2.04199L7.20996 6.40234H15.793L13.6797 2.04199C13.5002 1.67095 13.6476 1.21667 14.0088 1.03027L14.0771 0.999023ZM5.07227 16.5322H17.9307L19.3154 7.91992H3.68555L5.07227 16.5322ZM11.502 9.59473C11.9097 9.59498 12.2363 9.93806 12.2363 10.3545V14.0986C12.2361 14.5152 11.9093 14.8552 11.502 14.8555C11.0947 14.8555 10.7639 14.5156 10.7637 14.0986V10.3545C10.7637 9.93761 11.0943 9.59473 11.502 9.59473ZM7.34668 9.59863C7.71862 9.57603 8.05284 9.84672 8.11328 10.2314L8.71777 13.9756L8.72559 14.0527C8.74568 14.411 8.51794 14.7365 8.18164 14.8291L8.1084 14.8457C7.73216 14.9083 7.37787 14.6651 7.28223 14.2959L7.2666 14.2207L6.66309 10.4746L6.66211 10.4736C6.5982 10.0634 6.87085 9.67422 7.27148 9.60742L7.34668 9.59863ZM14.8867 10.2314C14.9512 9.82084 15.3276 9.54072 15.7314 9.60742L15.8047 9.62402C16.1645 9.72327 16.3978 10.0892 16.3379 10.4736L16.3369 10.4746L15.7334 14.2207C15.6692 14.6315 15.2928 14.9125 14.8916 14.8457C14.4903 14.7789 14.2211 14.3886 14.2852 13.9756L14.8867 10.2314Z" fill="#3A3A3A" stroke="#3A3A3A" stroke-width="0.1"/>
</svg>
