<svg width="11" height="11" viewBox="0 0 11 11" fill="none" xmlns="http://www.w3.org/2000/svg">
<path fill-rule="evenodd" clip-rule="evenodd" d="M10.7536 0.903846C10.9488 0.708584 10.9488 0.392002 10.7536 0.196739C10.5583 0.00147742 10.2417 0.00147748 10.0464 0.19674L5.45 4.79319L0.853553 0.19674C0.658291 0.00147748 0.341709 0.00147742 0.146447 0.196739C-0.0488155 0.392002 -0.0488155 0.708584 0.146447 0.903846L4.74289 5.50029L0.146447 10.0967C-0.0488155 10.292 -0.0488155 10.6086 0.146447 10.8038C0.341709 10.9991 0.658291 10.9991 0.853553 10.8038L5.45 6.2074L10.0464 10.8038C10.2417 10.9991 10.5583 10.9991 10.7536 10.8038C10.9488 10.6086 10.9488 10.292 10.7536 10.0967L6.1571 5.50029L10.7536 0.903846Z" fill="#EA4B43"/>
</svg>
