<svg width="21" height="22" viewBox="0 0 21 22" fill="none" xmlns="http://www.w3.org/2000/svg">
<path d="M12.3141 6.66005C12.8455 6.81511 13.3768 7.10283 13.7975 7.52355C14.2183 7.94427 14.5061 8.45348 14.6611 9.00701C14.7718 9.44979 15.1925 9.7156 15.6574 9.69334H15.7459C16.3658 9.67126 16.8308 9.05133 16.6537 8.45348C16.4101 7.58998 15.9451 6.74858 15.2588 6.06224C14.5724 5.37591 13.7532 4.91087 12.8675 4.66731C12.2697 4.49017 11.6497 4.9552 11.6277 5.57514V5.66364C11.6056 6.12868 11.8935 6.54936 12.3141 6.6601L12.3141 6.66005Z" fill="white"/>
<path d="M12.6242 3.18385C13.9528 3.42741 15.2147 4.04736 16.2554 5.06593C17.2739 6.0845 17.9159 7.36852 18.1374 8.69707C18.2259 9.18417 18.6689 9.53847 19.156 9.51625H19.2445C19.8424 9.49416 20.2631 8.94062 20.1744 8.36487C19.8645 6.63787 19.0453 4.97728 17.7168 3.62668C16.3662 2.27607 14.7056 1.45689 12.9786 1.16901C12.4029 1.05828 11.8494 1.50107 11.8272 2.09894V2.18744C11.7829 2.65264 12.1149 3.09542 12.6243 3.18391L12.6242 3.18385Z" fill="white"/>
<path d="M20.2409 15.5608L15.9455 13.3467C15.3477 13.0367 14.5949 13.1916 14.1742 13.7231L13.9971 13.9666C16.2997 15.6715 18.6467 16.8893 20.7944 17.5757C21.2151 16.8672 20.9715 15.9373 20.2409 15.5608L20.2409 15.5608Z" fill="white"/>
<path d="M7.55389 7.08069C8.08532 6.65997 8.26249 5.92932 7.93027 5.30937L5.71616 1.03613C5.33978 0.305479 4.43198 0.061887 3.74561 0.460506C4.40988 2.60819 5.62768 4.95515 7.31032 7.25782L7.55389 7.08069Z" fill="white"/>
<path d="M12.602 15.7379C11.0742 14.8965 9.90078 14.1216 8.55018 12.771C7.11108 11.3319 6.33607 10.1362 5.56105 8.65275L6.5353 7.87773C4.87472 5.64152 3.63485 3.29452 2.90416 1.03613L0.955703 2.34242C0.313691 2.76314 -0.0406064 3.49379 0.00371532 4.24655C0.048041 5.02157 0.158778 5.99562 0.335768 6.68215C1.13285 9.73766 3.03698 12.9038 5.71605 15.5829C8.3952 18.262 11.5613 20.1661 14.6168 20.9632C15.3031 21.1403 16.2774 21.2288 17.0744 21.2952C17.8495 21.3395 18.5799 20.9852 19.0007 20.321L20.2405 18.3947C17.9821 17.6641 15.6352 16.4021 13.3768 14.7193L12.602 15.7379Z" fill="white"/>
</svg>
