<svg width="9" height="9" viewBox="0 0 9 9" fill="none" xmlns="http://www.w3.org/2000/svg">
<path fill-rule="evenodd" clip-rule="evenodd" d="M8.85475 0.853553C9.05001 0.658291 9.05001 0.341709 8.85475 0.146447C8.65948 -0.0488156 8.3429 -0.0488155 8.14764 0.146447L4.5006 3.79349L0.853553 0.146447C0.658291 -0.0488155 0.341709 -0.0488156 0.146447 0.146447C-0.0488155 0.341709 -0.0488156 0.658291 0.146447 0.853553L3.79349 4.5006L0.146447 8.14764C-0.0488156 8.34291 -0.0488155 8.65949 0.146447 8.85475C0.341709 9.05001 0.658291 9.05001 0.853553 8.85475L4.5006 5.20771L8.14764 8.85475C8.3429 9.05001 8.65948 9.05001 8.85475 8.85475C9.05001 8.65949 9.05001 8.34291 8.85475 8.14764L5.2077 4.5006L8.85475 0.853553Z" fill="#3A3A3A" fill-opacity="0.4"/>
</svg>
