<svg width="43" height="42" viewBox="0 0 43 42" fill="none" xmlns="http://www.w3.org/2000/svg">
<path d="M20.8926 0.480469C21.2236 0.370011 21.4619 0.378873 21.6963 0.472656L21.709 0.477539L21.7207 0.481445L41.3213 6.87988C41.8614 7.09779 42.2118 7.56879 42.2119 8.12402V33.8125C42.2119 34.3582 41.8846 34.837 41.4404 35.0156L41.3506 35.0479L41.3398 35.0508L21.7197 41.5234L21.7188 41.5244C21.5828 41.5696 21.5041 41.5713 21.3057 41.5713C21.1567 41.5713 21.0752 41.5703 20.9863 41.5508L20.8926 41.5244L20.8906 41.5234L1.28906 35.125C0.749506 34.9065 0.400442 34.4357 0.400391 33.8809V8.125C0.400421 7.57936 0.726786 7.10053 1.1709 6.92188L1.26074 6.88965L1.27051 6.88672L20.8906 0.481445L20.8926 0.480469ZM39.1152 10.0381L22.8662 15.3643L22.5908 15.4541V38.543L23.1143 38.374L29.5869 36.2842L29.8643 36.1943V27.4756C29.8643 26.7307 30.3804 26.1904 31.082 26.1904C31.8049 26.1905 32.3672 26.7527 32.3672 27.4756V35.3066L32.8906 35.1377L39.3633 33.0479L39.6406 32.958V32.667L39.6396 10.418V9.86523L39.1152 10.0381ZM21.1807 3.09277L6.95508 7.74512L5.79395 8.12402L6.9541 8.50488L11.4717 9.98828L11.6035 10.0312L11.7334 9.98438L18.9307 7.36035C19.5793 7.16159 20.2503 7.43182 20.542 8.0127L20.5957 8.13379C20.8458 8.78459 20.504 9.5077 19.8145 9.77344L16.5879 10.917L15.4746 11.3105L16.5977 11.6748L21.1826 13.1582L21.3066 13.1982L21.4297 13.1572L35.6562 8.50488L36.8184 8.125L35.6562 7.74512L21.4297 3.09277L21.3057 3.05176L21.1807 3.09277ZM10.2441 12.2168L9.9668 12.127L3.49414 10.0371L2.97168 9.86816V32.957L3.24707 33.0469L19.4961 38.373L19.5557 38.3936H19.6875L20.0879 38.3945V15.4531L19.8105 15.3633L13.3379 13.2734L12.8154 13.1045V25.1162C12.8152 25.839 12.2521 26.4014 11.5293 26.4014C10.8066 26.4012 10.2444 25.8388 10.2441 25.1162V12.2168Z" fill="#EA4B43" stroke="#F6F6F6" stroke-width="0.8"/>
</svg>
