<svg width="42" height="42" viewBox="0 0 42 42" fill="none" xmlns="http://www.w3.org/2000/svg">
<path d="M40.2266 0.698975C40.4179 0.563646 40.6424 0.577279 40.7969 0.628662L41.1035 0.730225L41.0527 0.781982C41.067 0.797216 41.0822 0.811692 41.0947 0.828857C41.1689 0.930886 41.2002 1.05255 41.2002 1.17456V40.3923C41.1999 40.7249 40.9323 40.9919 40.5996 40.9919H1.38184C1.26013 40.9919 1.13894 40.9614 1.03711 40.8875C0.937423 40.8149 0.871594 40.7102 0.837891 40.5876L0.836914 40.5886C0.778263 40.4123 0.768567 40.1446 0.973633 39.9392L40.1475 0.765381L40.2266 0.698975ZM2.7998 39.7917H9.67676V37.991C9.67676 37.6581 9.94355 37.3904 10.2764 37.3904C10.6092 37.3904 10.877 37.6581 10.877 37.991V39.7917H13.4561V37.991C13.4561 37.6582 13.7229 37.3904 14.0557 37.3904C14.3885 37.3904 14.6562 37.6581 14.6562 37.991V39.7917H17.2354V37.991C17.2354 37.6582 17.5022 37.3904 17.835 37.3904C18.1678 37.3904 18.4355 37.6581 18.4355 37.991V39.7917H21.0146V37.991C21.0146 37.6582 21.2815 37.3905 21.6143 37.3904C21.9471 37.3904 22.2148 37.6581 22.2148 37.991V39.7917H24.7939V37.991C24.7939 37.6582 25.0608 37.3905 25.3936 37.3904C25.7264 37.3904 25.9941 37.6581 25.9941 37.991V39.7917H28.5732V37.991C28.5732 37.6582 28.8401 37.3905 29.1729 37.3904C29.5057 37.3904 29.7734 37.6581 29.7734 37.991V39.7917H32.3525V37.991C32.3525 37.6582 32.6194 37.3905 32.9521 37.3904C33.285 37.3904 33.5527 37.6581 33.5527 37.991V39.7917H36.1318V37.991C36.1318 37.6582 36.3987 37.3905 36.7314 37.3904C37.0643 37.3904 37.332 37.6581 37.332 37.991V39.7917H40V2.63354L2.7998 39.7917Z" fill="#EA4B43" stroke="#EA4B43" stroke-width="0.4"/>
<path d="M33.5571 17.7737C33.7423 17.6426 33.958 17.6522 34.1118 17.6995L34.1128 17.6985C34.2417 17.7307 34.351 17.8 34.4263 17.9036C34.5002 18.0054 34.5307 18.1266 34.5308 18.2483V33.7219L34.5181 33.844C34.4622 34.1179 34.2213 34.3225 33.9302 34.3225H18.4565C18.35 34.3224 18.238 34.2878 18.145 34.2336C18.0534 34.1801 17.9546 34.092 17.9116 33.9641V33.9631C17.853 33.7867 17.843 33.519 18.0483 33.3137H18.0493L33.478 17.8411V17.8401L33.5571 17.7737ZM19.9185 33.1223H33.3306V19.7092L19.9185 33.1223Z" fill="#EA4B43" stroke="#EA4B43" stroke-width="0.4"/>
</svg>
